# xmcd
#
# Track frame offsets:
#	150
#	10175
#	20525
#	31475
#	39500
#	48875
#	58850
#	68825
#	78575
#	92900
#	101750
#	111200
#	120950
#	132050
#	145400
#	156875
#	168425
#	178325
#	190250
#	201500
#
# Disc length: 2905 seconds
#
# Revision: 0
# Processed by: cddbd v1.4PL0 Copyright (c) Steve Scherf et al.
# Submitted via: audiograbber 1.80
#
DISCID=1a0b5714
DTITLE=Enrico Caruso - Complete Recordings Vol.2
DYEAR=1900
DGENRE=
TTITLE0=Cielo! e mar!
TTITLE1=Siciliana
TTITLE2=No, piu nobile
TTITLE3=Amor ti vieta di non amar
TTITLE4=Vesti la giubba
TTITLE5=Non t'amo piu
TTITLE6=La mia canzone
TTITLE7=Luna fedel
TTITLE8=Mi par d'udir ancora
TTITLE9=Mattinata
TTITLE10=Questa o quella
TTITLE11=La donna e mobile
TTITLE12=Una furtiva lagrima
TTITLE13=Un solo istante i palpiti
TTITLE14=E lucevan le stelle 
TTITLE15=Recondita armonia
TTITLE16=Siciliana
TTITLE17=Chiudo gli occhi
TTITLE18=Vesti la giubba
TTITLE19=Celesta Aida
EXTD=
EXTT0=
EXTT1=
EXTT2=
EXTT3=
EXTT4=
EXTT5=
EXTT6=
EXTT7=
EXTT8=
EXTT9=
EXTT10=
EXTT11=
EXTT12=
EXTT13=
EXTT14=
EXTT15=
EXTT16=
EXTT17=
EXTT18=
EXTT19=
PLAYORDER=
